#!OML:ASF I:\Actors\actors\Patient Classification 2\Patient 1\Session 1\actor1.ASF
:FULLY-SPECIFIED
:DEGREES
672
root -0.0683044 18.6294 5.33478 -1.10399 -5.03867 1.24108
lowerback 11.9698 -3.43992 14.175
upperback 1.89762 -2.24986 9.24966
thorax -4.88305 -1.27215 2.35275
lowerneck -15.9863 -6.98063 -4.04908
upperneck 17.5843 -8.02265 -3.02163
head 8.12819 -4.38391 -1.28285
rclavicle -1.82882e-014 -2.54444e-014
rhumerus 11.78 -9.3332 -83.5829
rradius 78.2216
rwrist -60.0116
rhand -10.5928 -47.9492
rfingers 7.12502
rthumb 15.4128 282.645
lclavicle -1.82882e-014 -2.54444e-014
lhumerus 23.1964 -42.1503 68.227
lradius 69.8661
lwrist 20.2143
lhand -13.2705 -19.8669
lfingers 7.12502
lthumb 12.8325 9.71862
rfemur 7.15549 0.492759 9.83466
rtibia -1.43125e-014
rfoot -11.3677 -8.37762
rtoes -8.74624
lfemur -5.4482 6.93056 -16.5893
ltibia 25.263
lfoot -19.5177 5.84802
ltoes -55.5255
673
root -0.0502537 18.6229 5.3666 -1.22202 -5.60796 1.29075
lowerback 12.1188 -3.54395 14.2867
upperback 1.63802 -2.29605 9.32463
thorax -5.25513 -1.31802 2.40973
lowerneck -16.1422 -6.87001 -3.94812
upperneck 17.5599 -7.84132 -3.26052
head 8.1326 -4.31731 -1.36115
rclavicle -1.43125e-014 -4.13472e-014
rhumerus 11.9963 -10.4093 -82.8626
rradius 78.4398
rwrist -60.1771
rhand -10.2249 -46.925
rfingers 7.12502
rthumb 15.7671 283.697
lclavicle -1.43125e-014 -4.13472e-014
lhumerus 23.1499 -42.2161 67.9045
lradius 69.9131
lwrist 20.4629
lhand -12.9824 -19.8561
lfingers 7.12502
lthumb 13.1101 9.71182
rfemur 7.22306 1.06078 9.7523
rtibia -5.56597e-015
rfoot -11.3523 -8.41717
rtoes -9.51579
lfemur -5.14349 7.20797 -16.6805
ltibia 25.3048
lfoot -19.7925 6.0549
ltoes -55.5585
674
root -0.0343057 18.6167 5.39842 -1.37563 -6.17557 1.3594
lowerback 11.9331 -3.63105 14.2993
upperback 1.61717 -2.4471 9.38696
thorax -5.18123 -1.39049 2.48773
lowerneck -16.3486 -6.76967 -3.82893
upperneck 17.3651 -7.68902 -3.43846
head 8.09078 -4.25514 -1.42251
rclavicle -3.49861e-014 2.22639e-014
rhumerus 12.7027 -11.6273 -82.4033
rradius 78.5722
rwrist -59.9979
rhand -11.2894 -47.012
rfingers 7.12502
rthumb 14.7417 283.532
lclavicle -3.49861e-014 2.22639e-014
lhumerus 23.5279 -42.1411 67.1358
lradius 70.0338
lwrist 20.71
lhand -12.5916 -19.5187
lfingers 7.12502
lthumb 13.4869 10.0246
rfemur 7.33119 1.63289 9.65828
rtibia -1.74931e-014
rfoot -11.3415 -8.44224
rtoes -10.3013
lfemur -4.81073 7.55696 -16.7709
ltibia 25.3426
lfoot -20.0054 6.22428
ltoes -55.6657
675
root -0.0188134 18.6087 5.43125 -1.51922 -6.74997 1.41527
lowerback 11.7205 -3.70993 14.2963
upperback 1.57843 -2.59211 9.46413
thorax -5.10983 -1.46041 2.58765
lowerneck -16.4679 -6.6889 -3.84824
upperneck 17.1898 -7.54913 -3.54311
head 8.05 -4.20037 -1.43707
rclavicle 1.59028e-014 3.18055e-015
rhumerus 13.4376 -12.8313 -81.8774
rradius 78.5864
rwrist -59.2933
rhand -10.23 -46.0315
rfingers 7.12502
rthumb 15.7621 284.59
lclavicle 1.59028e-014 3.18055e-015
lhumerus 23.8317 -42.083 66.3544
lradius 70.2157
lwrist 20.8985
lhand -12.1474 -19.2828
lfingers 7.12502
lthumb 13.915 10.2316
rfemur 7.42794 2.20976 9.57976
rtibia 1.59028e-015
rfoot -11.335 -8.45592
rtoes -10.5953
lfemur -4.49168 7.99167 -16.8358
ltibia 25.3807
lfoot -20.1939 6.36175
ltoes -55.7989
676
root -0.00198328 18.5993 5.46613 -1.6366 -7.32249 1.49325
lowerback 11.5851 -3.76843 14.2947
upperback 1.42548 -2.67418 9.54233
thorax -5.20275 -1.50867 2.68915
lowerneck -16.4668 -6.59092 -3.86661
upperneck 16.9987 -7.38607 -3.68858
head 7.98164 -4.13841 -1.45732
rclavicle -3.26007e-014 -2.22639e-014
rhumerus 13.9216 -14.0083 -81.1283
rradius 78.6766
rwrist -58.1563
rhand -8.19628 -44.7028
rfingers 7.12502
rthumb 17.72 286.085
lclavicle -3.26007e-014 -2.22639e-014
lhumerus 23.943 -42.1222 65.6953
lradius 70.4349
lwrist 20.9491
lhand -11.2442 -19.6356
lfingers 7.12502
lthumb 14.7852 9.81705
rfemur 7.4942 2.78166 9.46926
rtibia -1.11319e-014
rfoot -11.3219 -8.45828
rtoes -11.0905
lfemur -4.19592 8.41785 -16.9316
ltibia 25.4233
lfoot -20.4492 6.49437
ltoes -55.8469
677
root 0.0144364 18.5907 5.50296 -1.74579 -7.90457 1.52569
lowerback 11.5782 -3.83623 14.383
upperback 1.17894 -2.71306 9.60536
thorax -5.47297 -1.54627 2.73525
lowerneck -16.5676 -6.48075 -3.8397
upperneck 16.9259 -7.20722 -3.84965
head 7.96843 -4.06898 -1.49537
rclavicle 1.98785e-014 1.11319e-013
rhumerus 14.181 -15.0671 -80.1781
rradius 78.9123
rwrist -57.1876
rhand -8.04283 -44.1569
rfingers 7.12502
rthumb 17.8676 286.644
lclavicle 1.98785e-014 1.11319e-013
lhumerus 23.8392 -42.1834 65.1742
lradius 70.6614
lwrist 20.7801
lhand -10.1023 -19.8587
lfingers 7.12502
lthumb 15.8851 9.50979
rfemur 7.5665 3.36014 9.41274
rtibia 3.33958e-014
rfoot -11.3471 -8.43597
rtoes -11.7466
lfemur -3.88594 8.78991 -16.9767
ltibia 25.4666
lfoot -20.7095 6.6119
ltoes -55.8393
